<svg width="260" height="455" viewBox="0 0 260 455" fill="none" xmlns="http://www.w3.org/2000/svg">
<path fill-rule="evenodd" clip-rule="evenodd" d="M236 0C249.255 0 260 10.7452 260 24V365C251.163 365 244 372.163 244 381C244 389.837 251.163 397 260 397V431C260 444.255 249.255 455 236 455H24C10.7452 455 1.42954e-07 444.255 0 431V397C8.83656 397 16 389.837 16 381C16 372.163 8.83656 365 0 365V24C0 10.7452 10.7452 2.73809e-07 24 0H236ZM22 379C20.8954 379 20 379.895 20 381C20 382.105 20.8954 383 22 383C23.1046 383 24 382.105 24 381C24 379.895 23.1046 379 22 379ZM30 379C28.8954 379 28 379.895 28 381C28 382.105 28.8954 383 30 383C31.1046 383 32 382.105 32 381C32 379.895 31.1046 379 30 379ZM38 379C36.8954 379 36 379.895 36 381C36 382.105 36.8954 383 38 383C39.1046 383 40 382.105 40 381C40 379.895 39.1046 379 38 379ZM46 379C44.8954 379 44 379.895 44 381C44 382.105 44.8954 383 46 383C47.1046 383 48 382.105 48 381C48 379.895 47.1046 379 46 379ZM54 379C52.8954 379 52 379.895 52 381C52 382.105 52.8954 383 54 383C55.1046 383 56 382.105 56 381C56 379.895 55.1046 379 54 379ZM62 379C60.8954 379 60 379.895 60 381C60 382.105 60.8954 383 62 383C63.1046 383 64 382.105 64 381C64 379.895 63.1046 379 62 379ZM70 379C68.8954 379 68 379.895 68 381C68 382.105 68.8954 383 70 383C71.1046 383 72 382.105 72 381C72 379.895 71.1046 379 70 379ZM78 379C76.8954 379 76 379.895 76 381C76 382.105 76.8954 383 78 383C79.1046 383 80 382.105 80 381C80 379.895 79.1046 379 78 379ZM86 379C84.8954 379 84 379.895 84 381C84 382.105 84.8954 383 86 383C87.1046 383 88 382.105 88 381C88 379.895 87.1046 379 86 379ZM94 379C92.8954 379 92 379.895 92 381C92 382.105 92.8954 383 94 383C95.1046 383 96 382.105 96 381C96 379.895 95.1046 379 94 379ZM102 379C100.895 379 100 379.895 100 381C100 382.105 100.895 383 102 383C103.105 383 104 382.105 104 381C104 379.895 103.105 379 102 379ZM110 379C108.895 379 108 379.895 108 381C108 382.105 108.895 383 110 383C111.105 383 112 382.105 112 381C112 379.895 111.105 379 110 379ZM118 379C116.895 379 116 379.895 116 381C116 382.105 116.895 383 118 383C119.105 383 120 382.105 120 381C120 379.895 119.105 379 118 379ZM126 379C124.895 379 124 379.895 124 381C124 382.105 124.895 383 126 383C127.105 383 128 382.105 128 381C128 379.895 127.105 379 126 379ZM134 379C132.895 379 132 379.895 132 381C132 382.105 132.895 383 134 383C135.105 383 136 382.105 136 381C136 379.895 135.105 379 134 379ZM142 379C140.895 379 140 379.895 140 381C140 382.105 140.895 383 142 383C143.105 383 144 382.105 144 381C144 379.895 143.105 379 142 379ZM150 379C148.895 379 148 379.895 148 381C148 382.105 148.895 383 150 383C151.105 383 152 382.105 152 381C152 379.895 151.105 379 150 379ZM158 379C156.895 379 156 379.895 156 381C156 382.105 156.895 383 158 383C159.105 383 160 382.105 160 381C160 379.895 159.105 379 158 379ZM166 379C164.895 379 164 379.895 164 381C164 382.105 164.895 383 166 383C167.105 383 168 382.105 168 381C168 379.895 167.105 379 166 379ZM174 379C172.895 379 172 379.895 172 381C172 382.105 172.895 383 174 383C175.105 383 176 382.105 176 381C176 379.895 175.105 379 174 379ZM182 379C180.895 379 180 379.895 180 381C180 382.105 180.895 383 182 383C183.105 383 184 382.105 184 381C184 379.895 183.105 379 182 379ZM190 379C188.895 379 188 379.895 188 381C188 382.105 188.895 383 190 383C191.105 383 192 382.105 192 381C192 379.895 191.105 379 190 379ZM198 379C196.895 379 196 379.895 196 381C196 382.105 196.895 383 198 383C199.105 383 200 382.105 200 381C200 379.895 199.105 379 198 379ZM206 379C204.895 379 204 379.895 204 381C204 382.105 204.895 383 206 383C207.105 383 208 382.105 208 381C208 379.895 207.105 379 206 379ZM214 379C212.895 379 212 379.895 212 381C212 382.105 212.895 383 214 383C215.105 383 216 382.105 216 381C216 379.895 215.105 379 214 379ZM222 379C220.895 379 220 379.895 220 381C220 382.105 220.895 383 222 383C223.105 383 224 382.105 224 381C224 379.895 223.105 379 222 379ZM230 379C228.895 379 228 379.895 228 381C228 382.105 228.895 383 230 383C231.105 383 232 382.105 232 381C232 379.895 231.105 379 230 379ZM238 379C236.895 379 236 379.895 236 381C236 382.105 236.895 383 238 383C239.105 383 240 382.105 240 381C240 379.895 239.105 379 238 379Z" fill="white"/>
<path fill-rule="evenodd" clip-rule="evenodd" d="M130 23C134.92 23.0947 139.367 25.1776 143.341 29.249C147.22 33.3204 150.295 38.7649 152.565 45.582C154.742 52.3045 155.83 59.7372 155.83 67.8799V119.435C155.83 123.032 156.256 125.778 157.107 127.672C157.864 129.471 159.425 131.412 161.79 133.495L255.459 219.42C258.487 222.166 260 225.432 260 229.22V365C251.163 365 244 372.163 244 381C244 389.837 251.163 397 260 397V431C260 444.255 249.255 455 236 455H24C10.7452 455 1.42954e-07 444.255 0 431V397C8.83656 397 16 389.837 16 381C16 372.163 8.83656 365 0 365V229.22C-1.65545e-07 225.432 1.5135 222.166 4.54102 219.42L98.21 133.495C100.67 131.412 102.325 129.471 103.177 127.672C103.934 125.778 104.312 123.032 104.312 119.435V67.8799C104.312 59.7371 105.448 52.3045 107.719 45.582C109.895 38.7649 112.923 33.3204 116.802 29.249C120.681 25.1778 125.08 23.0947 130 23ZM22 379C20.8954 379 20 379.895 20 381C20 382.105 20.8954 383 22 383C23.1046 383 24 382.105 24 381C24 379.895 23.1046 379 22 379ZM30 379C28.8954 379 28 379.895 28 381C28 382.105 28.8954 383 30 383C31.1046 383 32 382.105 32 381C32 379.895 31.1046 379 30 379ZM38 379C36.8954 379 36 379.895 36 381C36 382.105 36.8954 383 38 383C39.1046 383 40 382.105 40 381C40 379.895 39.1046 379 38 379ZM46 379C44.8954 379 44 379.895 44 381C44 382.105 44.8954 383 46 383C47.1046 383 48 382.105 48 381C48 379.895 47.1046 379 46 379ZM54 379C52.8954 379 52 379.895 52 381C52 382.105 52.8954 383 54 383C55.1046 383 56 382.105 56 381C56 379.895 55.1046 379 54 379ZM62 379C60.8954 379 60 379.895 60 381C60 382.105 60.8954 383 62 383C63.1046 383 64 382.105 64 381C64 379.895 63.1046 379 62 379ZM70 379C68.8954 379 68 379.895 68 381C68 382.105 68.8954 383 70 383C71.1046 383 72 382.105 72 381C72 379.895 71.1046 379 70 379ZM78 379C76.8954 379 76 379.895 76 381C76 382.105 76.8954 383 78 383C79.1046 383 80 382.105 80 381C80 379.895 79.1046 379 78 379ZM86 379C84.8954 379 84 379.895 84 381C84 382.105 84.8954 383 86 383C87.1046 383 88 382.105 88 381C88 379.895 87.1046 379 86 379ZM94 379C92.8954 379 92 379.895 92 381C92 382.105 92.8954 383 94 383C95.1046 383 96 382.105 96 381C96 379.895 95.1046 379 94 379ZM102 379C100.895 379 100 379.895 100 381C100 382.105 100.895 383 102 383C103.105 383 104 382.105 104 381C104 379.895 103.105 379 102 379ZM110 379C108.895 379 108 379.895 108 381C108 382.105 108.895 383 110 383C111.105 383 112 382.105 112 381C112 379.895 111.105 379 110 379ZM118 379C116.895 379 116 379.895 116 381C116 382.105 116.895 383 118 383C119.105 383 120 382.105 120 381C120 379.895 119.105 379 118 379ZM126 379C124.895 379 124 379.895 124 381C124 382.105 124.895 383 126 383C127.105 383 128 382.105 128 381C128 379.895 127.105 379 126 379ZM134 379C132.895 379 132 379.895 132 381C132 382.105 132.895 383 134 383C135.105 383 136 382.105 136 381C136 379.895 135.105 379 134 379ZM142 379C140.895 379 140 379.895 140 381C140 382.105 140.895 383 142 383C143.105 383 144 382.105 144 381C144 379.895 143.105 379 142 379ZM150 379C148.895 379 148 379.895 148 381C148 382.105 148.895 383 150 383C151.105 383 152 382.105 152 381C152 379.895 151.105 379 150 379ZM158 379C156.895 379 156 379.895 156 381C156 382.105 156.895 383 158 383C159.105 383 160 382.105 160 381C160 379.895 159.105 379 158 379ZM166 379C164.895 379 164 379.895 164 381C164 382.105 164.895 383 166 383C167.105 383 168 382.105 168 381C168 379.895 167.105 379 166 379ZM174 379C172.895 379 172 379.895 172 381C172 382.105 172.895 383 174 383C175.105 383 176 382.105 176 381C176 379.895 175.105 379 174 379ZM182 379C180.895 379 180 379.895 180 381C180 382.105 180.895 383 182 383C183.105 383 184 382.105 184 381C184 379.895 183.105 379 182 379ZM190 379C188.895 379 188 379.895 188 381C188 382.105 188.895 383 190 383C191.105 383 192 382.105 192 381C192 379.895 191.105 379 190 379ZM198 379C196.895 379 196 379.895 196 381C196 382.105 196.895 383 198 383C199.105 383 200 382.105 200 381C200 379.895 199.105 379 198 379ZM206 379C204.895 379 204 379.895 204 381C204 382.105 204.895 383 206 383C207.105 383 208 382.105 208 381C208 379.895 207.105 379 206 379ZM214 379C212.895 379 212 379.895 212 381C212 382.105 212.895 383 214 383C215.105 383 216 382.105 216 381C216 379.895 215.105 379 214 379ZM222 379C220.895 379 220 379.895 220 381C220 382.105 220.895 383 222 383C223.105 383 224 382.105 224 381C224 379.895 223.105 379 222 379ZM230 379C228.895 379 228 379.895 228 381C228 382.105 228.895 383 230 383C231.105 383 232 382.105 232 381C232 379.895 231.105 379 230 379ZM238 379C236.895 379 236 379.895 236 381C236 382.105 236.895 383 238 383C239.105 383 240 382.105 240 381C240 379.895 239.105 379 238 379Z" fill="#BBE2FF"/>
</svg>
