<svg width="260" height="455" viewBox="0 0 260 455" fill="none" xmlns="http://www.w3.org/2000/svg">
<path d="M175.06 455C175.06 430.265 154.654 410.213 129.482 410.213C104.31 410.213 83.9044 430.265 83.9044 455L39.5 455L32 455C14.3269 455 1.2525e-06 440.673 2.79753e-06 423L7.51836e-06 369L2.4338e-05 176.605L3.68924e-05 33L3.76792e-05 24C3.8838e-05 10.7452 10.7452 -2.17905e-05 24 -2.06318e-05L83.9044 -1.53948e-05C83.9044 24.7354 104.31 44.7875 129.482 44.7875C154.654 44.7875 175.06 24.7354 175.06 -7.42571e-06L219 -3.58433e-06L228 -2.79753e-06C245.673 -1.2525e-06 260 14.3269 260 32L260 107L260 176.605L260 388.5L260 423C260 440.673 245.673 455 228 455L218.5 455L175.06 455Z" fill="white"/>
</svg>
