<svg width="455" height="260" viewBox="0 0 455 260" fill="none" xmlns="http://www.w3.org/2000/svg">
<path d="M455 84.9402C430.265 84.9402 410.213 105.346 410.213 130.518C410.213 155.69 430.265 176.096 455 176.096V220.5V228C455 245.673 440.673 260 423 260H369H176.605H33H24C10.7452 260 0 249.255 0 236V176.096C24.7354 176.096 44.7875 155.69 44.7875 130.518C44.7875 105.346 24.7354 84.9402 0 84.9402V41V32C0 14.3269 14.3269 0 32 0H107H176.605L388.5 0L423 0C440.673 0 455 14.3269 455 32V41.5V84.9402Z" fill="white"/>
</svg>
