<svg width="455" height="260" viewBox="0 0 455 260" fill="none" xmlns="http://www.w3.org/2000/svg">
<path fill-rule="evenodd" clip-rule="evenodd" d="M455 236C455 249.255 444.255 260 431 260L90 260C90 251.163 82.8366 244 74 244C65.1634 244 58 251.163 58 260H24C10.7452 260 -3.0556e-07 249.255 0 236L9.26681e-06 24C9.8462e-06 10.7452 10.7452 -4.36433e-07 24 0L58 1.48619e-06C58 8.83656 65.1635 16 74 16C82.8366 16 90 8.83656 90 2.88495e-06L431 1.77905e-05C444.255 1.83699e-05 455 10.7452 455 24V236ZM76 22C76 20.8954 75.1046 20 74 20C72.8954 20 72 20.8954 72 22C72 23.1046 72.8954 24 74 24C75.1046 24 76 23.1046 76 22ZM76 30C76 28.8954 75.1046 28 74 28C72.8954 28 72 28.8954 72 30C72 31.1046 72.8954 32 74 32C75.1046 32 76 31.1046 76 30ZM76 38C76 36.8954 75.1046 36 74 36C72.8954 36 72 36.8954 72 38C72 39.1046 72.8954 40 74 40C75.1046 40 76 39.1046 76 38ZM76 46C76 44.8954 75.1046 44 74 44C72.8954 44 72 44.8954 72 46C72 47.1046 72.8954 48 74 48C75.1046 48  76 47.1046 76 46ZM76 54C76 52.8954 75.1046 52 74 52C72.8954 52 72 52.8954 72 54C72 55.1046 72.8954 56 74 56C75.1046 56 76 55.1046 76 54ZM76 62C76 60.8954 75.1046 60 74 60C72.8954 60 72 60.8954 72 62C72 63.1046 72.8954 64 74 64C75.1046 64 76 63.1046 76 62ZM76 70C76 68.8954 75.1046 68 74 68C72.8954 68 72 68.8954 72 70C72 71.1046 72.8954 72 74 72C75.1046 72 76 71.1046 76 70ZM76 78C76 76.8954 75.1046 76 74 76C72.8954 76 72 76.8954 72 78C72 79.1046 72.8954 80 74 80C75.1046 80 76 79.1046 76 78ZM76 86C76 84.8954 75.1046 84 74 84C72.8954 84 72 84.8954 72 86C72 87.1046 72.8954 88 74 88C75.1046 88 76 87.1046 76 86ZM76 94C76 92.8954 75.1046 92 74 92C72.8954 92 72 92.8954 72 94C72 95.1046 72.8954 96 74 96C75.1046 96 76 95.1046 76 94ZM76 102C76 100.895 75.1046 100 74 100C72.8954 100 72 100.895 72 102C72 103.105 72.8954 104 74 104C75.1046 104 76 103.105 76 102ZM76 110C76 108.895 75.1046 108 74 108C72.8954 108 72 108.895 72 110C72 111.105 72.8954 112 74 112C75.1046 112 76 111.105 76 110ZM76 118C76 116.895 75.1046 116 74 116C72.8954 116 72 116.895 72 118C72 119.105 72.8954 120 74 120C75.1046 120 76 119.105 76 118ZM76 126C76 124.895 75.1046 124 74 124C72.8954 124 72 124.895 72 126C72 127.105 72.8954 128 74 128C75.1046 128 76 127.105 76 126ZM76 134C76 132.895 75.1046 132 74 132C72.8954 132 72 132.895 72 134C72 135.105 72.8954 136 74 136C75.1046 136 76 135.105 76 134ZM76 142C76 140.895 75.1046 140 74 140C72.8954 140 72 140.895 72 142C72 143.105 72.8954 144 74 144C75.1046 144 76 143.105 76 142ZM76 150C76 148.895 75.1046 148 74 148C72.8954 148 72 148.895 72 150C72 151.105 72.8954 152 74 152C75.1046 152 76 151.105 76 150ZM76 158C76 156.895 75.1046 156 74 156C72.8954 156 72 156.895 72 158C72 159.105 72.8954 160 74 160C75.1046 160 76 159.105 76 158ZM76 166C76 164.895 75.1046 164 74 164C72.8954 164 72 164.895 72 166C72 167.105 72.8954 168 74 168C75.1046 168 76 167.105 76 166ZM76 174C76 172.895 75.1046 172 74 172C72.8954 172 72 172.895 72 174C72 175.105 72.8954 176 74 176C75.1046 176 76 175.105 76 174ZM76 182C76 180.895 75.1046 180 74 180C72.8954 180 72 180.895 72 182C72 183.105 72.8954 184 74 184C75.1046 184 76 183.105 76 182ZM76 190C76 188.895 75.1046 188 74 188C72.8954 188 72 188.895 72 190C72 191.105 72.8954 192 74 192C75.1046 192 76 191.105 76 190ZM76 198C76 196.895 75.1046 196 74 196C72.8954 196 72 196.895 72 198C72 199.105 72.8954 200 74 200C75.1046 200 76 199.105 76 198ZM76 206C76 204.895 75.1046 204 74 204C72.8954 204 72 204.895 72 206C72 207.105 72.8954 208 74 208C75.1046 208 76 207.105 76 206ZM76 214C76 212.895 75.1046 212 74 212C72.8954 212 72 212.895 72 214C72 215.105 72.8954 216 74 216C75.1046 216 76 215.105 76 214ZM76 222C76 220.895 75.1046 220 74 220C72.8954 220 72 220.895 72 222C72 223.105 72.8954 224 74 224C75.1046 224 76 223.105 76 222ZM76 230C76 228.895 75.1046 228 74 228C72.8954 228 72 228.895 72 230C72 231.105 72.8954 232 74 232C75.1046 232 76 231.105 76 230ZM76 238C76 236.895 75.1046 236 74 236C72.8954 236 72 236.895 72 238C72 239.105 72.8954 240 74 240C75.1046 240 76 239.105 76 238Z" fill="white"/>
<path fill-rule="evenodd" clip-rule="evenodd" d="M432 130C431.905 134.92 429.822 139.367 425.751 143.341C421.68 147.22 416.235 150.295 409.418 152.565C402.695 154.742 395.263 155.83 387.12 155.83H335.565C331.968 155.83 329.222 156.256 327.328 157.107C325.529 157.864 323.588 159.425 321.505 161.79L235.58 255.459C232.834 258.487 229.568 260 225.78 260H90C90 251.163 82.8366 244 74 244C65.1634 244 58 251.163 58 260H24C10.7452 260 -3.0556e-07 249.255 0 236L9.26681e-06 24C9.8462e-06 10.7452 10.7452 -4.36433e-07 24 0L58 1.48619e-06C58 8.83656 65.1635 16 74 16C82.8366 16 90 8.83656 90 2.88495e-06L225.78 8.8201e-06C229.568 8.8201e-06 232.834 1.51351 235.58 4.54102L321.505 98.21C323.588 100.67 325.529 102.325 327.328 103.177C329.222 103.934 331.968 104.313 335.565 104.313H387.12C395.263 104.313 402.695 105.448 409.418 107.719C416.235 109.895 421.68 112.923 425.751 116.802C429.822 120.681 431.905 125.08 432 130ZM76 22C76 20.8954 75.1046 20 74 20C72.8954 20 72 20.8954 72 22C72 23.1046 72.8954 24 74 24C75.1046 24 76 23.1046 76 22ZM76 30C76 28.8954 75.1046 28 74 28C72.8954 28 72 28.8954 72 30C72 31.1046 72.8954 32 74 32C75.1046 32 76 31.1046 76 30ZM76 38C76 36.8954 75.1046 36 74 36C72.8954 36 72 36.8954 72 38C72 39.1046 72.8954 40 74 40C75.1046 40 76 39.1046 76 38ZM76 46C76 44.8954 75.1046 44 74 44C72.8954 44 72 44.8954 72 46C72 47.1046 72.8954 48 74 48C75.1046 48 76 47.1046 76 46ZM76 54C76 52.8954 75.1046 52 74 52C72.8954 52 72 52.8954 72 54C72 55.1046 72.8954 56 74 56C75.1046 56 76 55.1046 76 54ZM76 62C76 60.8954 75.1046 60 74 60C72.8954 60 72 60.8954 72 62C72 63.1046 72.8954 64 74 64C75.1046 64 76 63.1046 76 62ZM76 70C76 68.8954 75.1046 68 74 68C72.8954 68 72 68.8954 72 70C72 71.1046 72.8954 72 74 72C75.1046 72 76 71.1046 76 70ZM76 78C76 76.8954 75.1046 76 74 76C72.8954 76 72 76.8954 72 78C72 79.1046 72.8954 80 74 80C75.1046 80 76 79.1046 76 78ZM76 86C76 84.8954 75.1046 84 74 84C72.8954 84 72 84.8954 72 86C72 87.1046 72.8954 88 74 88C75.1046 88 76 87.1046 76 86ZM76 94C76 92.8954 75.1046 92 74 92C72.8954 92 72 92.8954 72 94C72 95.1046 72.8954 96 74 96C75.1046 96 76 95.1046 76 94ZM76 102C76 100.895 75.1046 100 74 100C72.8954 100 72 100.895 72 102C72 103.105 72.8954 104 74 104C75.1046 104 76 103.105 76 102ZM76 110C76 108.895 75.1046 108 74 108C72.8954 108 72 108.895 72 110C72 111.105 72.8954 112 74 112C75.1046 112 76 111.105 76 110ZM76 118C76 116.895 75.1046 116 74 116C72.8954 116 72 116.895 72 118C72 119.105 72.8954 120 74 120C75.1046 120 76 119.105 76 118ZM76 126C76 124.895 75.1046 124 74 124C72.8954 124 72 124.895 72 126C72 127.105 72.8954 128 74 128C75.1046 128 76 127.105 76 126ZM76 134C76 132.895 75.1046 132 74 132C72.8954 132 72 132.895 72 134C72 135.105 72.8954 136 74 136C75.1046 136 76 135.105 76 134ZM76 142C76 140.895 75.1046 140 74 140C72.8954 140 72 140.895 72 142C72 143.105 72.8954 144 74 144C75.1046 144 76 143.105 76 142ZM76 150C76 148.895 75.1046 148 74 148C72.8954 148 72 148.895 72 150C72 151.105 72.8954 152 74 152C75.1046 152 76 151.105 76 150ZM76 158C76 156.895 75.1046 156 74 156C72.8954 156 72 156.895 72 158C72 159.105 72.8954 160 74 160C75.1046 160 76 159.105 76 158ZM76 166C76 164.895 75.1046 164 74 164C72.8954 164 72 164.895 72 166C72 167.105 72.8954 168 74 168C75.1046 168 76 167.105 76 166ZM76 174C76 172.895 75.1046 172 74 172C72.8954 172 72 172.895 72 174C72 175.105 72.8954 176 74 176C75.1046 176 76 175.105 76 174ZM76 182C76 180.895 75.1046 180 74 180C72.8954 180 72 180.895 72 182C72 183.105 72.8954 184 74 184C75.1046 184 76 183.105 76 182ZM76 190C76 188.895 75.1046 188 74 188C72.8954 188 72 188.895 72 190C72 191.105 72.8954 192 74 192C75.1046 192 76 191.105 76 190ZM76 198C76 196.895 75.1046 196 74 196C72.8954 196 72 196.895 72 198C72 199.105 72.8954 200 74 200C75.1046 200 76 199.105 76 198ZM76 206C76 204.895 75.1046 204 74 204C72.8954 204 72 204.895 72 206C72 207.105 72.8954 208 74 208C75.1046 208 76 207.105 76 206ZM76 214C76 212.895 75.1046 212 74 212C72.8954 212 72 212.895 72 214C72 215.105 72.8954 216 74 216C75.1046 216 76 215.105 76 214ZM76 222C76 220.895 75.1046 220 74 220C72.8954 220 72 220.895 72 222C72 223.105 72.8954 224 74 224C75.1046 224 76 223.105 76 222ZM76 230C76 228.895 75.1046 228 74 228C72.8954 228 72 228.895 72 230C72 231.105 72.8954 232 74 232C75.1046 232 76 231.105 76 230ZM76 238C76 236.895 75.1046 236 74 236C72.8954 236 72 236.895 72 238C72 239.105 72.8954 240 74 240C75.1046 240 76 239.105 76 238Z" fill="#BBE2FF"/>
</svg>
